HIERARCHY
ROOT pelvis
{
	OFFSET 0.003123 -0.351407 0.012037
	CHANNELS 6 Xposition Yposition Zposition Zrotation Yrotation Xrotation 
	JOINT left_hip
	{
		OFFSET 0.058189 -0.092763 -0.026001
		CHANNELS 3 Zrotation Yrotation Xrotation
		JOINT left_knee
		{
			OFFSET 0.054695 -0.378753 -0.009396
			CHANNELS 3 Zrotation Yrotation Xrotation
			JOINT left_ankle
			{
				OFFSET -0.043453 -0.403059 -0.031876
				CHANNELS 3 Zrotation Yrotation Xrotation
				JOINT left_foot
				{
					OFFSET 0.047257 -0.057997 0.118216
					CHANNELS 3 Zrotation Yrotation Xrotation
					End Site
					{
						OFFSET 0.000000 0.000000 0.000000
					}
				}
			}
		}
	}
	JOINT right_hip
	{
		OFFSET -0.063267 -0.103908 -0.021250
		CHANNELS 3 Zrotation Yrotation Xrotation
		JOINT right_knee
		{
			OFFSET -0.044210 -0.362380 -0.016824
			CHANNELS 3 Zrotation Yrotation Xrotation
			JOINT right_ankle
			{
				OFFSET 0.015417 -0.410728 -0.020192
				CHANNELS 3 Zrotation Yrotation Xrotation
				JOINT right_foot
				{
					OFFSET -0.038812 -0.058328 0.119049
					CHANNELS 3 Zrotation Yrotation Xrotation
					End Site
					{
						OFFSET 0.000000 0.000000 0.000000
					}
				}
			}
		}
	}
	JOINT spine_1
	{
		OFFSET -0.002763 0.109891 -0.027618
		CHANNELS 3 Zrotation Yrotation Xrotation
		JOINT spine_2
		{
			OFFSET 0.009448 0.131853 -0.005940
			CHANNELS 3 Zrotation Yrotation Xrotation
			JOINT spine_3
			{
				OFFSET -0.011330 0.052235 0.028447
				CHANNELS 3 Zrotation Yrotation Xrotation
				JOINT neck
				{
					OFFSET -0.012164 0.165167 -0.031615
					CHANNELS 3 Zrotation Yrotation Xrotation
					JOINT head
					{
						OFFSET 0.024783 0.160452 0.020737
						CHANNELS 3 Zrotation Yrotation Xrotation
						End Site
						{
							OFFSET 0.000000 0.000000 0.000000
						}
					}
				}
				JOINT left_collar
				{
					OFFSET 0.046364 0.084944 -0.007220
					CHANNELS 3 Zrotation Yrotation Xrotation
					JOINT left_shoulder
					{
						OFFSET 0.119239 0.057728 -0.015461
						CHANNELS 3 Zrotation Yrotation Xrotation
						JOINT left_elbow
						{
							OFFSET 0.254123 -0.072151 -0.042459
							CHANNELS 3 Zrotation Yrotation Xrotation
							JOINT left_wrist
							{
								OFFSET 0.251987 0.023221 -0.002472
								CHANNELS 3 Zrotation Yrotation Xrotation
								JOINT left_index_1
								{
									OFFSET 0.101902 -0.008688 0.019351
									CHANNELS 3 Zrotation Yrotation Xrotation
									JOINT left_index_2
									{
										OFFSET 0.030149 -0.011154 0.001151
										CHANNELS 3 Zrotation Yrotation Xrotation
										JOINT left_index_3
										{
											OFFSET 0.006504 -0.021577 -0.002433
											CHANNELS 3 Zrotation Yrotation Xrotation
											End Site
											{
												OFFSET 0.000000 0.000000 0.000000
											}
										}
									}
								}
								JOINT left_middle_1
								{
									OFFSET 0.109398 -0.006328 -0.003981
									CHANNELS 3 Zrotation Yrotation Xrotation
									JOINT left_middle_2
									{
										OFFSET 0.026472 -0.015218 -0.004641
										CHANNELS 3 Zrotation Yrotation Xrotation
										JOINT left_middle_3
										{
											OFFSET 0.005022 -0.023347 -0.001911
											CHANNELS 3 Zrotation Yrotation Xrotation
											End Site
											{
												OFFSET 0.000000 0.000000 0.000000
											}
										}
									}
								}
								JOINT left_pinky_1
								{
									OFFSET 0.084047 -0.014539 -0.043750
									CHANNELS 3 Zrotation Yrotation Xrotation
									JOINT left_pinky_2
									{
										OFFSET 0.012124 -0.014448 -0.005375
										CHANNELS 3 Zrotation Yrotation Xrotation
										JOINT left_pinky_3
										{
											OFFSET 0.003798 -0.018853 0.000167
											CHANNELS 3 Zrotation Yrotation Xrotation
											End Site
											{
												OFFSET 0.000000 0.000000 0.000000
											}
										}
									}
								}
								JOINT left_ring_1
								{
									OFFSET 0.097444 -0.009268 -0.027345
									CHANNELS 3 Zrotation Yrotation Xrotation
									JOINT left_ring_2
									{
										OFFSET 0.023561 -0.016057 -0.001895
										CHANNELS 3 Zrotation Yrotation Xrotation
										JOINT left_ring_3
										{
											OFFSET 0.004257 -0.023548 0.000814
											CHANNELS 3 Zrotation Yrotation Xrotation
											End Site
											{
												OFFSET 0.000000 0.000000 0.000000
											}
										}
									}
								}
								JOINT left_thumb_1
								{
									OFFSET 0.040636 -0.017977 0.025611
									CHANNELS 3 Zrotation Yrotation Xrotation
									JOINT left_thumb_2
									{
										OFFSET 0.021637 -0.017639 0.011623
										CHANNELS 3 Zrotation Yrotation Xrotation
										JOINT left_thumb_3
										{
											OFFSET 0.024002 -0.008356 0.006548
											CHANNELS 3 Zrotation Yrotation Xrotation
											End Site
											{
												OFFSET 0.000000 0.000000 0.000000
											}
										}
									}
								}
							}
						}
					}
				}
				JOINT right_collar
				{
					OFFSET -0.047695 0.084339 -0.013400
					CHANNELS 3 Zrotation Yrotation Xrotation
					JOINT right_shoulder
					{
						OFFSET -0.102578 0.053524 -0.012669
						CHANNELS 3 Zrotation Yrotation Xrotation
						JOINT right_elbow
						{
							OFFSET -0.271150 -0.036492 -0.026467
							CHANNELS 3 Zrotation Yrotation Xrotation
							JOINT right_wrist
							{
								OFFSET -0.249267 -0.004533 -0.015325
								CHANNELS 3 Zrotation Yrotation Xrotation
								JOINT right_index_1
								{
									OFFSET -0.099881 -0.011783 0.019600
									CHANNELS 3 Zrotation Yrotation Xrotation
									JOINT right_index_2
									{
										OFFSET -0.030148 -0.011154 0.001151
										CHANNELS 3 Zrotation Yrotation Xrotation
										JOINT right_index_3
										{
											OFFSET -0.006505 -0.021577 -0.002432
											CHANNELS 3 Zrotation Yrotation Xrotation
											End Site
											{
												OFFSET 0.000000 0.000000 0.000000
											}
										}
									}
								}
								JOINT right_middle_1
								{
									OFFSET -0.107376 -0.009422 -0.003734
									CHANNELS 3 Zrotation Yrotation Xrotation
									JOINT right_middle_2
									{
										OFFSET -0.026472 -0.015218 -0.004641
										CHANNELS 3 Zrotation Yrotation Xrotation
										JOINT right_middle_3
										{
											OFFSET -0.005022 -0.023347 -0.001911
											CHANNELS 3 Zrotation Yrotation Xrotation
											End Site
											{
												OFFSET 0.000000 0.000000 0.000000
											}
										}
									}
								}
								JOINT right_pinky_1
								{
									OFFSET -0.082027 -0.017634 -0.043503
									CHANNELS 3 Zrotation Yrotation Xrotation
									JOINT right_pinky_2
									{
										OFFSET -0.012123 -0.014448 -0.005374
										CHANNELS 3 Zrotation Yrotation Xrotation
										JOINT right_pinky_3
										{
											OFFSET -0.003798 -0.018852 0.000167
											CHANNELS 3 Zrotation Yrotation Xrotation
											End Site
											{
												OFFSET 0.000000 0.000000 0.000000
											}
										}
									}
								}
								JOINT right_ring_1
								{
									OFFSET -0.095423 -0.012362 -0.027099
									CHANNELS 3 Zrotation Yrotation Xrotation
									JOINT right_ring_2
									{
										OFFSET -0.023561 -0.016057 -0.001895
										CHANNELS 3 Zrotation Yrotation Xrotation
										JOINT right_ring_3
										{
											OFFSET -0.004257 -0.023548 0.000816
											CHANNELS 3 Zrotation Yrotation Xrotation
											End Site
											{
												OFFSET 0.000000 0.000000 0.000000
											}
										}
									}
								}
								JOINT right_thumb_1
								{
									OFFSET -0.038613 -0.021074 0.025861
									CHANNELS 3 Zrotation Yrotation Xrotation
									JOINT right_thumb_2
									{
										OFFSET -0.021636 -0.017639 0.011623
										CHANNELS 3 Zrotation Yrotation Xrotation
										JOINT right_thumb_3
										{
											OFFSET -0.024004 -0.008353 0.006547
											CHANNELS 3 Zrotation Yrotation Xrotation
											End Site
											{
												OFFSET 0.000000 0.000000 0.000000
											}
										}
									}
								}
							}
						}
					}
				}
			}
		}
	}
}
MOTION
Frames: 4
Frame Time: 0.050000
-1.026062 1.000412 0.376755 -1.612447 -11.586614 -1.898917 -1.031321 -0.553469 -3.767745 2.756575 -0.448096 1.241209 -4.493860 6.684955 25.507665 0.000000 0.000000 0.000000 6.760675 0.167612 -3.034993 -3.052474 0.149871 0.953854 3.451695 -8.093154 21.706695 0.000000 0.000000 0.000000 -0.836850 -1.543074 39.827447 -3.788303 -0.334199 -8.003104 8.459366 0.651679 25.009586 -4.643620 0.358021 5.538764 0.000000 0.000000 0.000000 -6.256361 -19.844217 10.994788 -49.798835 -48.434511 0.440828 -15.822851 -28.236219 6.832395 6.178392 0.528381 6.924251 -18.948566 -0.120129 0.575661 -26.025815 13.992234 16.991631 0.000000 0.000000 0.000000 -16.705211 -10.358482 -6.690736 -49.625458 8.572620 4.209780 0.000000 0.000000 0.000000 17.335279 -24.137996 -25.181948 -37.661678 -16.736722 -36.500355 0.000000 0.000000 0.000000 -13.373089 -21.130598 -11.428479 -69.298813 0.276048 3.069387 0.000000 0.000000 0.000000 8.862130 16.433932 12.143929 6.833656 -9.027660 -5.590220 0.000000 0.000000 0.000000 6.923490 30.157854 16.916868 22.382658 50.272169 -0.485523 -4.083994 17.537381 -0.781021 -8.916345 1.625422 -9.099408 21.330652 -19.073237 3.068121 32.036851 -4.312566 4.803425 0.000000 0.000000 0.000000 21.012078 5.704031 -4.716976 42.833428 -5.412946 6.465115 0.000000 0.000000 0.000000 -12.713170 30.528531 -45.499392 -6.241984 -4.860596 24.627887 0.000000 0.000000 0.000000 10.956206 21.716801 -12.550225 12.696212 1.456400 -1.668495 0.000000 0.000000 0.000000 -18.223376 -37.702471 32.477909 -20.683913 28.057760 -23.237663 0.000000 0.000000 0.000000 
-1.026062 1.000412 0.375435 -1.738086 -11.797360 -1.152721 -0.780473 -0.710703 -4.975087 2.610768 -0.498276 1.776468 -2.397134 9.043736 25.012707 0.000000 0.000000 0.000000 5.598038 0.209404 -3.170450 -1.701356 0.028941 -0.393429 5.347042 -6.196490 22.665388 0.000000 0.000000 0.000000 -0.901301 -1.502377 39.550503 -3.869317 -0.283395 -7.932419 7.716936 0.720073 24.282638 -3.317578 -0.117233 6.753699 0.000000 0.000000 0.000000 -4.753820 -19.726980 10.680165 -50.082076 -46.052400 0.125180 -17.176888 -31.596963 8.153846 7.084839 2.102361 4.692246 -15.327702 -1.149844 0.334937 -9.534410 9.213112 20.514061 0.000000 0.000000 0.000000 -15.648853 -10.388593 -6.571080 -28.273866 9.786154 15.630909 0.000000 0.000000 0.000000 11.411297 -17.804400 -19.424002 -27.220939 -10.206987 -24.245865 0.000000 0.000000 0.000000 -9.933453 -16.160897 -9.431971 -50.956176 5.369494 10.859920 0.000000 0.000000 0.000000 20.191189 28.503923 24.001684 1.352092 -44.345914 -15.731695 0.000000 0.000000 0.000000 8.141510 31.284017 17.901499 21.535317 49.535516 -0.777877 -3.934688 17.485205 -0.762631 -7.933391 5.347912 -8.125526 7.525542 -30.890657 8.192426 28.823523 11.842112 -28.184721 0.000000 0.000000 0.000000 11.486988 -7.152722 1.291791 26.754685 9.730725 -24.400967 0.000000 0.000000 0.000000 -18.586127 26.975075 -40.912486 1.941735 -3.931953 14.848702 0.000000 0.000000 0.000000 7.664977 20.304774 -12.200895 25.407780 -5.553180 15.849535 0.000000 0.000000 0.000000 -31.693450 -37.482219 34.697087 12.173411 48.812199 -9.621499 0.000000 0.000000 0.000000 
-1.026062 1.000412 0.376755 -1.691744 -10.984142 -1.109147 -0.979285 -0.679210 -4.676989 2.897622 -0.426276 0.976387 -2.907460 8.387112 24.626091 0.000000 0.000000 0.000000 6.601727 0.092811 -2.631318 -3.232814 0.053978 -0.753231 4.516562 -6.536866 21.504033 0.000000 0.000000 0.000000 -0.784930 -1.615197 39.909046 -3.799156 -0.255618 -7.823347 7.103047 2.660132 23.707306 -2.426707 -0.307404 6.246729 0.000000 0.000000 0.000000 -4.829890 -20.994063 11.216122 -48.203542 -47.672424 -0.669684 -17.271890 -29.007196 7.379551 4.985420 -3.173369 5.500542 -12.779940 16.579859 4.448427 -34.387092 -3.446501 -12.919284 0.000000 0.000000 0.000000 -16.888998 9.059799 0.485368 -45.413495 -7.695951 -19.907761 0.000000 0.000000 0.000000 -1.561287 -25.411583 -25.027851 -32.646328 -9.192238 -32.376167 0.000000 0.000000 0.000000 -18.558395 -3.640421 -2.905604 -66.148273 -13.730270 -14.246062 0.000000 0.000000 0.000000 17.109084 24.740296 20.301444 7.136290 -20.346534 -9.925412 0.000000 0.000000 0.000000 9.581619 29.584444 17.425078 22.843376 50.286545 0.103225 -5.230156 14.571321 -0.670755 -6.706743 7.135587 -7.623763 3.846467 -30.170061 9.115246 36.626925 10.750940 -22.418124 0.000000 0.000000 0.000000 11.300429 -6.306865 0.989655 40.087872 12.061690 -23.223854 0.000000 0.000000 0.000000 -16.206662 28.900971 -43.457376 3.077458 -3.737744 13.455844 0.000000 0.000000 0.000000 9.683897 22.411032 -12.994781 35.036740 -4.374652 11.584552 0.000000 0.000000 0.000000 -10.408505 -29.017532 22.785490 -16.237705 10.431102 -10.073798 0.000000 0.000000 0.000000 
-1.026062 1.000412 0.374115 -0.099292 -8.325335 -2.033350 -3.057205 -0.670042 -4.153780 3.463170 -0.463794 0.922842 -6.159831 5.067749 25.165386 0.000000 0.000000 0.000000 4.881749 0.156670 -2.583011 -3.215037 0.111041 -0.050259 2.866150 -8.452533 22.149679 0.000000 0.000000 0.000000 -2.295098 -1.371904 41.138062 -2.107243 -1.104645 -8.529921 7.120455 2.242414 23.777093 -2.024781 -0.639052 7.935716 0.000000 0.000000 0.000000 -5.339968 -21.636502 11.564569 -47.927963 -47.728976 -1.001757 -17.402823 -29.081420 7.429196 4.438118 -2.771190 5.950506 -11.349423 16.029623 4.554329 -32.439566 -3.167125 -12.538042 0.000000 0.000000 0.000000 -14.570484 8.057664 0.680718 -55.915095 -9.807452 -21.207914 0.000000 0.000000 0.000000 8.150968 -32.424658 -31.598108 -42.202560 -10.927696 -32.710145 0.000000 0.000000 0.000000 -14.502504 -6.946568 -4.159443 -76.072315 -16.671956 -14.519268 0.000000 0.000000 0.000000 19.895263 24.925961 20.454270 6.148289 -22.017771 -9.891373 0.000000 0.000000 0.000000 9.199809 29.409869 17.374459 21.314645 50.498453 -0.275063 -3.679170 13.391940 -0.502831 -6.641552 6.999031 -10.230541 7.324339 -35.679834 9.371960 47.188083 -3.128687 -0.480007 0.000000 0.000000 0.000000 17.351577 -10.092670 1.283875 72.872784 1.640107 -4.513918 0.000000 0.000000 0.000000 -13.882312 31.040638 -48.020691 8.647577 -16.043426 40.267056 0.000000 0.000000 0.000000 15.536514 23.989118 -12.585751 43.414657 -5.014867 11.604981 0.000000 0.000000 0.000000 -10.783283 -29.729953 21.786730 -16.766607 9.827176 -10.056349 0.000000 0.000000 0.000000 
